<svg xmlns="http://www.w3.org/2000/svg" width="151.25" height="260.278" viewBox="0 0 151.25 260.278"><g transform="translate(-2128.376 462.362)"><path d="M1045.918,722.551a43.658,43.658,0,0,1-2.04,12.071c-.028.091-.058.18-.088.271h-7.612c.008-.081.016-.172.024-.271.507-5.835,3.434-41.348-.065-47.421C1036.447,687.692,1046.513,704.01,1045.918,722.551Z" transform="translate(1228.318 -939.921)" fill="#e6e6e6"/><path d="M1048.049,752.3c-.064.091-.13.181-.2.271h-5.71l.151-.271c.943-1.7,3.736-6.793,6.328-12.071,2.786-5.671,5.341-11.558,5.126-13.688C1053.808,727.022,1055.735,741.669,1048.049,752.3Z" transform="translate(1225.621 -957.6)" fill="#e6e6e6"/><path d="M894.868,500.036l-2.353,13.045a6.739,6.739,0,0,0,7.558,7.871h0a6.739,6.739,0,0,0,5.638-8.2l-2.985-12.828L913.4,465.36l-2.46-36.99-15.292,5.287,6.913,28.282Z" transform="translate(1292.906 -823.613)" fill="#ffb8b8"/><circle cx="12.787" cy="12.787" r="12.787" transform="translate(2168.727 -453.386)" fill="#ffb8b8"/><path d="M874.788,384.669l24.991-.39c-5.362-12.976-9.707-25.227-8.591-33.582l-17.572,2.733C875.7,365.3,876.7,373.846,874.788,384.669Z" transform="translate(1301.35 -788.709)" fill="#ffb8b8"/><path d="M839.577,431.913l33.582,6.248c11.321-20.741,17.567-39.47,7.029-51.544l-19.915-1.171c-12.725,13.607-23.487,26.812-16.175,36.316Z" transform="translate(1316.646 -804.323)" fill="#6c63ff"/><path d="M893.313,418.454c7.685,2.94,14.818.385,21.365-8l-9.7-18.721-12.364,2.45Z" transform="translate(1292.815 -807.151)" fill="#6c63ff"/><path d="M829.723,622.7,843,622.015l8.591-89.909,43.734,89.421,13.667-.391-26.162-78.488c-1.033-26.186-2.112-52.3-13.276-63.649l-3.9-8.2-31.239-6.638-4.3,8.2C820.154,495.615,826,562.061,829.723,622.7Z" transform="translate(1323.377 -839.696)" fill="#2f2e41"/><path d="M816.218,762.927l15.5,1.486a6.278,6.278,0,0,0,6.842-6.913l-1.139-10.705a26.932,26.932,0,0,1-13.667-.391l-5.857,5.076-2.776.867a5.426,5.426,0,0,0-3.787,4.709h0a5.426,5.426,0,0,0,4.887,5.871Z" transform="translate(1329.348 -966.526)" fill="#2f2e41"/><path d="M935.356,762.927l15.5,1.486a6.278,6.278,0,0,0,6.842-6.913l-1.139-10.705a26.931,26.931,0,0,1-13.667-.391l-5.857,5.076-2.776.868a5.426,5.426,0,0,0-3.787,4.709h0A5.426,5.426,0,0,0,935.356,762.927Z" transform="translate(1275.812 -966.525)" fill="#2f2e41"/><path d="M858.015,407.313c5.47,6.147,12.979,7.161,22.648,2.733V388.96l-12.1-3.514Z" transform="translate(1308.361 -804.324)" fill="#6c63ff"/><path d="M798.5,483.731l-8.092,10.5a6.739,6.739,0,0,0,3.088,10.466h0a6.739,6.739,0,0,0,8.78-4.688l3.253-12.763,25.382-25.772L845.748,427.5l-16.01-2.343L818.8,454.835Z" transform="translate(1339.371 -822.169)" fill="#ffb8b8"/><path d="M873.759,309.372a25.438,25.438,0,0,1,19.135-1.773c6.242,2.059,11.525,7.221,13.121,13.6,1.206,4.82.335,9.877-.09,14.827s-.29,10.3,2.563,14.369c1.788,2.549,4.459,4.317,7.091,5.982s5.345,3.336,7.288,5.768,2.993,5.834,1.82,8.718c-1.5,3.682-5.812,5.182-9.638,6.262-5.453,1.54-10.98,3.092-16.645,3.205s-11.581-1.37-15.744-5.215c-5.663-5.23-7.022-13.783-5.949-21.416s4.18-14.814,6.137-22.27c.756-2.881,1.2-6.356-.9-8.473-2.128-2.15-5.737-1.729-8.386-3.19a6.423,6.423,0,0,1,1.806-11.914" transform="translate(1302.865 -768.837)" fill="#2f2e41"/></g></svg>